<svg xmlns="http://www.w3.org/2000/svg" xmlns:xlink="http://www.w3.org/1999/xlink" width="500" zoomAndPan="magnify" viewBox="0 0 375 374.999991" height="500" preserveAspectRatio="xMidYMid meet" version="1.0"><defs><g/><clipPath id="d46a96ff85"><rect x="0" width="375" y="0" height="75"/></clipPath></defs><g transform="matrix(1, 0, 0, 1, 0, 150)"><g clip-path="url(#d46a96ff85)"><g fill="#ffffff" fill-opacity="1"><g transform="translate(0.0000045, 57.460601)"><g><path d="M 11.703125 0.21875 C 11.335938 0.21875 11.015625 0.148438 10.734375 0.015625 C 10.453125 -0.109375 10.3125 -0.28125 10.3125 -0.5 C 10.3125 -0.800781 10.441406 -1.046875 10.703125 -1.234375 C 10.960938 -1.421875 11.335938 -1.550781 11.828125 -1.625 C 13.242188 -1.925781 14.285156 -2.347656 14.953125 -2.890625 C 15.628906 -3.429688 15.96875 -4.316406 15.96875 -5.546875 L 15.96875 -28.234375 C 15.96875 -29.765625 15.929688 -30.921875 15.859375 -31.703125 C 15.785156 -32.492188 15.679688 -33.03125 15.546875 -33.3125 C 15.421875 -33.59375 15.222656 -33.75 14.953125 -33.78125 C 14.585938 -33.9375 14.125 -34.03125 13.5625 -34.0625 C 13 -34.101562 12.457031 -34.125 11.9375 -34.125 L 10.203125 -34.125 C 9.117188 -34.125 8.070312 -33.867188 7.0625 -33.359375 C 6.050781 -32.859375 5.265625 -32.179688 4.703125 -31.328125 C 4.554688 -31.097656 4.320312 -30.773438 4 -30.359375 C 3.6875 -29.953125 3.351562 -29.582031 3 -29.25 C 2.644531 -28.914062 2.28125 -28.75 1.90625 -28.75 C 1.644531 -28.75 1.46875 -28.835938 1.375 -29.015625 C 1.28125 -29.203125 1.234375 -29.410156 1.234375 -29.640625 C 1.234375 -30.085938 1.34375 -30.535156 1.5625 -30.984375 C 2.195312 -32.253906 2.671875 -33.363281 2.984375 -34.3125 C 3.304688 -35.269531 3.523438 -36.398438 3.640625 -37.703125 C 3.710938 -38.265625 3.867188 -38.628906 4.109375 -38.796875 C 4.359375 -38.960938 4.613281 -39.046875 4.875 -39.046875 C 5.09375 -39.046875 5.359375 -38.8125 5.671875 -38.34375 C 5.992188 -37.882812 6.289062 -37.503906 6.5625 -37.203125 C 6.894531 -36.867188 7.488281 -36.617188 8.34375 -36.453125 C 9.207031 -36.285156 9.9375 -36.203125 10.53125 -36.203125 L 31.203125 -36.25 C 32.253906 -36.25 33.132812 -36.332031 33.84375 -36.5 C 34.550781 -36.664062 35.113281 -36.84375 35.53125 -37.03125 C 36.082031 -37.375 36.523438 -37.722656 36.859375 -38.078125 C 37.203125 -38.429688 37.597656 -38.609375 38.046875 -38.609375 C 38.234375 -38.609375 38.375 -38.503906 38.46875 -38.296875 C 38.5625 -38.085938 38.609375 -37.835938 38.609375 -37.546875 C 38.609375 -37.359375 38.585938 -37.140625 38.546875 -36.890625 C 38.515625 -36.648438 38.476562 -36.4375 38.4375 -36.25 C 38.289062 -35.539062 38.140625 -34.914062 37.984375 -34.375 C 37.835938 -33.832031 37.71875 -33.328125 37.625 -32.859375 C 37.53125 -32.390625 37.484375 -31.859375 37.484375 -31.265625 L 37.484375 -30.3125 C 37.484375 -29.789062 37.40625 -29.34375 37.25 -28.96875 C 37.101562 -28.59375 36.863281 -28.40625 36.53125 -28.40625 C 36.226562 -28.40625 35.972656 -28.582031 35.765625 -28.9375 C 35.566406 -29.289062 35.351562 -29.84375 35.125 -30.59375 C 34.789062 -31.789062 34.234375 -32.675781 33.453125 -33.25 C 32.671875 -33.832031 31.4375 -34.125 29.75 -34.125 L 25.9375 -34.125 C 25.226562 -34.125 24.675781 -33.992188 24.28125 -33.734375 C 23.894531 -33.472656 23.617188 -32.898438 23.453125 -32.015625 C 23.285156 -31.140625 23.203125 -29.785156 23.203125 -27.953125 L 23.203125 -5.609375 C 23.203125 -4.410156 23.535156 -3.539062 24.203125 -3 C 24.878906 -2.457031 25.945312 -2 27.40625 -1.625 C 27.851562 -1.507812 28.207031 -1.378906 28.46875 -1.234375 C 28.726562 -1.085938 28.859375 -0.863281 28.859375 -0.5625 C 28.859375 -0.300781 28.734375 -0.113281 28.484375 0 C 28.242188 0.113281 27.9375 0.171875 27.5625 0.171875 C 26.664062 0.171875 25.769531 0.148438 24.875 0.109375 C 23.976562 0.078125 23.09375 0.0390625 22.21875 0 C 21.34375 -0.0390625 20.492188 -0.0625 19.671875 -0.0625 C 18.847656 -0.0625 17.992188 -0.0390625 17.109375 0 C 16.234375 0.0390625 15.335938 0.0859375 14.421875 0.140625 C 13.515625 0.191406 12.609375 0.21875 11.703125 0.21875 Z M 11.703125 0.21875 "/></g></g></g><g fill="#ffffff" fill-opacity="1"><g transform="translate(38.488636, 57.460601)"><g><path d="M 2.234375 0.21875 C 1.898438 0.21875 1.601562 0.148438 1.34375 0.015625 C 1.082031 -0.109375 0.953125 -0.28125 0.953125 -0.5 C 0.953125 -1.0625 1.421875 -1.4375 2.359375 -1.625 C 3.773438 -1.925781 4.800781 -2.335938 5.4375 -2.859375 C 6.070312 -3.378906 6.390625 -4.238281 6.390625 -5.4375 L 6.390625 -30.875 C 6.390625 -32.101562 6.125 -32.976562 5.59375 -33.5 C 5.070312 -34.03125 4.085938 -34.441406 2.640625 -34.734375 C 1.703125 -34.921875 1.234375 -35.316406 1.234375 -35.921875 C 1.234375 -36.140625 1.363281 -36.3125 1.625 -36.4375 C 1.882812 -36.570312 2.179688 -36.640625 2.515625 -36.640625 C 3.410156 -36.640625 4.285156 -36.617188 5.140625 -36.578125 C 6.003906 -36.546875 6.835938 -36.507812 7.640625 -36.46875 C 8.453125 -36.4375 9.265625 -36.421875 10.078125 -36.421875 C 10.867188 -36.421875 11.664062 -36.4375 12.46875 -36.46875 C 13.269531 -36.507812 14.097656 -36.546875 14.953125 -36.578125 C 15.816406 -36.617188 16.695312 -36.640625 17.59375 -36.640625 C 17.96875 -36.640625 18.265625 -36.570312 18.484375 -36.4375 C 18.710938 -36.3125 18.828125 -36.117188 18.828125 -35.859375 C 18.828125 -35.554688 18.703125 -35.320312 18.453125 -35.15625 C 18.210938 -34.988281 17.867188 -34.847656 17.421875 -34.734375 C 15.929688 -34.359375 14.921875 -33.910156 14.390625 -33.390625 C 13.867188 -32.867188 13.609375 -32.007812 13.609375 -30.8125 L 13.609375 -5.484375 C 13.609375 -4.328125 13.914062 -3.488281 14.53125 -2.96875 C 15.15625 -2.445312 16.175781 -2 17.59375 -1.625 C 18.082031 -1.507812 18.445312 -1.378906 18.6875 -1.234375 C 18.925781 -1.085938 19.046875 -0.863281 19.046875 -0.5625 C 19.046875 -0.300781 18.929688 -0.113281 18.703125 0 C 18.484375 0.113281 18.1875 0.171875 17.8125 0.171875 C 16.914062 0.171875 16.019531 0.148438 15.125 0.109375 C 14.226562 0.078125 13.359375 0.0390625 12.515625 0 C 11.679688 -0.0390625 10.867188 -0.0625 10.078125 -0.0625 C 9.265625 -0.0625 8.425781 -0.0390625 7.5625 0 C 6.707031 0.0390625 5.832031 0.0859375 4.9375 0.140625 C 4.039062 0.191406 3.140625 0.21875 2.234375 0.21875 Z M 2.234375 0.21875 "/></g></g></g><g fill="#ffffff" fill-opacity="1"><g transform="translate(58.433257, 57.460601)"><g><path d="M 2.515625 0.21875 C 2.066406 0.21875 1.722656 0.148438 1.484375 0.015625 C 1.242188 -0.109375 1.125 -0.28125 1.125 -0.5 C 1.125 -0.800781 1.28125 -1.015625 1.59375 -1.140625 C 1.914062 -1.273438 2.300781 -1.398438 2.75 -1.515625 C 3.644531 -1.773438 4.410156 -2.273438 5.046875 -3.015625 C 5.679688 -3.765625 6.070312 -4.738281 6.21875 -5.9375 C 6.519531 -8.21875 6.8125 -10.703125 7.09375 -13.390625 C 7.375 -16.078125 7.632812 -18.785156 7.875 -21.515625 C 8.113281 -24.242188 8.304688 -26.800781 8.453125 -29.1875 C 8.453125 -29.445312 8.453125 -29.742188 8.453125 -30.078125 C 8.453125 -30.421875 8.453125 -30.757812 8.453125 -31.09375 C 8.421875 -31.65625 8.320312 -32.113281 8.15625 -32.46875 C 7.988281 -32.820312 7.695312 -33.148438 7.28125 -33.453125 C 6.757812 -33.828125 6.21875 -34.113281 5.65625 -34.3125 C 5.09375 -34.519531 4.457031 -34.695312 3.75 -34.84375 C 3.34375 -34.925781 3.015625 -35.066406 2.765625 -35.265625 C 2.523438 -35.472656 2.40625 -35.726562 2.40625 -36.03125 C 2.40625 -36.320312 2.554688 -36.523438 2.859375 -36.640625 C 3.160156 -36.753906 3.550781 -36.8125 4.03125 -36.8125 C 4.519531 -36.8125 5.175781 -36.789062 6 -36.75 C 6.820312 -36.71875 7.707031 -36.671875 8.65625 -36.609375 C 9.601562 -36.554688 10.546875 -36.507812 11.484375 -36.46875 C 12.421875 -36.4375 13.242188 -36.421875 13.953125 -36.421875 C 14.253906 -36.421875 14.515625 -36.328125 14.734375 -36.140625 C 14.960938 -35.953125 15.113281 -35.726562 15.1875 -35.46875 C 15.40625 -34.757812 15.625 -34.066406 15.84375 -33.390625 C 16.070312 -32.722656 16.316406 -32.015625 16.578125 -31.265625 L 24.984375 -10.703125 C 25.097656 -10.515625 25.25 -10.410156 25.4375 -10.390625 C 25.625 -10.367188 25.753906 -10.453125 25.828125 -10.640625 L 34.84375 -30.703125 C 35.113281 -31.785156 35.332031 -32.738281 35.5 -33.5625 C 35.664062 -34.382812 35.820312 -35.039062 35.96875 -35.53125 C 36.082031 -36.007812 36.328125 -36.25 36.703125 -36.25 L 39 -36.25 C 40.414062 -36.320312 41.90625 -36.429688 43.46875 -36.578125 C 45.039062 -36.734375 46.257812 -36.8125 47.125 -36.8125 C 47.425781 -36.8125 47.710938 -36.765625 47.984375 -36.671875 C 48.265625 -36.578125 48.40625 -36.378906 48.40625 -36.078125 C 48.40625 -35.785156 48.289062 -35.5625 48.0625 -35.40625 C 47.84375 -35.257812 47.507812 -35.09375 47.0625 -34.90625 C 46.769531 -34.832031 46.414062 -34.710938 46 -34.546875 C 45.59375 -34.378906 45.238281 -34.21875 44.9375 -34.0625 C 44.15625 -33.726562 43.566406 -33.300781 43.171875 -32.78125 C 42.773438 -32.257812 42.597656 -31.507812 42.640625 -30.53125 C 42.679688 -27.882812 42.753906 -25.503906 42.859375 -23.390625 C 42.972656 -21.285156 43.078125 -19.304688 43.171875 -17.453125 C 43.265625 -15.609375 43.382812 -13.722656 43.53125 -11.796875 C 43.6875 -9.867188 43.816406 -7.75 43.921875 -5.4375 C 44.003906 -4.382812 44.40625 -3.5625 45.125 -2.96875 C 45.851562 -2.375 46.835938 -1.925781 48.078125 -1.625 C 48.523438 -1.507812 48.890625 -1.378906 49.171875 -1.234375 C 49.453125 -1.085938 49.59375 -0.863281 49.59375 -0.5625 C 49.59375 -0.300781 49.46875 -0.113281 49.21875 0 C 48.976562 0.113281 48.65625 0.171875 48.25 0.171875 C 47.382812 0.171875 46.484375 0.148438 45.546875 0.109375 C 44.617188 0.078125 43.710938 0.0390625 42.828125 0 C 41.953125 -0.0390625 41.125 -0.0625 40.34375 -0.0625 C 39.59375 -0.0625 38.828125 -0.0390625 38.046875 0 C 37.265625 0.0390625 36.460938 0.0859375 35.640625 0.140625 C 34.816406 0.191406 33.957031 0.21875 33.0625 0.21875 C 32.6875 0.21875 32.359375 0.148438 32.078125 0.015625 C 31.796875 -0.109375 31.65625 -0.28125 31.65625 -0.5 C 31.65625 -0.800781 31.796875 -1.046875 32.078125 -1.234375 C 32.359375 -1.421875 32.722656 -1.550781 33.171875 -1.625 C 34.441406 -1.882812 35.328125 -2.273438 35.828125 -2.796875 C 36.335938 -3.328125 36.550781 -4.207031 36.46875 -5.4375 C 36.4375 -7.863281 36.382812 -10.195312 36.3125 -12.4375 C 36.238281 -14.675781 36.160156 -16.894531 36.078125 -19.09375 C 36.003906 -21.300781 35.910156 -23.53125 35.796875 -25.78125 C 35.765625 -26.070312 35.679688 -26.207031 35.546875 -26.1875 C 35.421875 -26.175781 35.28125 -26.019531 35.125 -25.71875 L 23.703125 0.0625 C 23.554688 0.46875 23.3125 0.640625 22.96875 0.578125 C 22.632812 0.523438 22.410156 0.351562 22.296875 0.0625 C 20.578125 -4.269531 18.773438 -8.554688 16.890625 -12.796875 C 15.003906 -17.035156 13.144531 -21.34375 11.3125 -25.71875 C 11.207031 -26.019531 11.050781 -26.128906 10.84375 -26.046875 C 10.632812 -25.972656 10.515625 -25.769531 10.484375 -25.4375 C 10.296875 -23.34375 10.125 -21.179688 9.96875 -18.953125 C 9.820312 -16.734375 9.726562 -14.519531 9.6875 -12.3125 C 9.65625 -10.113281 9.640625 -7.929688 9.640625 -5.765625 C 9.640625 -4.765625 9.960938 -3.90625 10.609375 -3.1875 C 11.265625 -2.476562 12.265625 -1.957031 13.609375 -1.625 C 14.054688 -1.550781 14.4375 -1.429688 14.75 -1.265625 C 15.070312 -1.097656 15.234375 -0.863281 15.234375 -0.5625 C 15.234375 -0.300781 15.082031 -0.113281 14.78125 0 C 14.488281 0.113281 14.15625 0.171875 13.78125 0.171875 C 12.769531 0.171875 12.003906 0.148438 11.484375 0.109375 C 10.960938 0.078125 10.476562 0.0390625 10.03125 0 C 9.582031 -0.0390625 8.984375 -0.0625 8.234375 -0.0625 C 7.453125 -0.0625 6.710938 -0.0390625 6.015625 0 C 5.328125 0.0390625 4.679688 0.0859375 4.078125 0.140625 C 3.484375 0.191406 2.960938 0.21875 2.515625 0.21875 Z M 2.515625 0.21875 "/></g></g></g><g fill="#ffffff" fill-opacity="1"><g transform="translate(109.527335, 57.460601)"><g><path d="M 2.75 0.28125 C 2.332031 0.28125 2.003906 0.203125 1.765625 0.046875 C 1.523438 -0.0976562 1.40625 -0.28125 1.40625 -0.5 C 1.40625 -0.988281 1.890625 -1.34375 2.859375 -1.5625 C 4.203125 -1.90625 5.160156 -2.328125 5.734375 -2.828125 C 6.316406 -3.335938 6.609375 -4.207031 6.609375 -5.4375 L 6.609375 -30.8125 C 6.609375 -32.082031 6.351562 -32.976562 5.84375 -33.5 C 5.34375 -34.03125 4.40625 -34.441406 3.03125 -34.734375 C 2.5 -34.847656 2.117188 -35.007812 1.890625 -35.21875 C 1.671875 -35.425781 1.5625 -35.640625 1.5625 -35.859375 C 1.5625 -36.117188 1.679688 -36.3125 1.921875 -36.4375 C 2.171875 -36.570312 2.5 -36.640625 2.90625 -36.640625 C 3.988281 -36.640625 5.023438 -36.617188 6.015625 -36.578125 C 7.015625 -36.546875 7.976562 -36.507812 8.90625 -36.46875 C 9.84375 -36.4375 10.816406 -36.421875 11.828125 -36.421875 C 13.546875 -36.421875 15.363281 -36.4375 17.28125 -36.46875 C 19.207031 -36.507812 20.9375 -36.53125 22.46875 -36.53125 C 23.695312 -36.570312 24.710938 -36.628906 25.515625 -36.703125 C 26.328125 -36.773438 26.804688 -36.8125 26.953125 -36.8125 C 27.210938 -36.8125 27.484375 -36.753906 27.765625 -36.640625 C 28.046875 -36.523438 28.203125 -36.300781 28.234375 -35.96875 C 28.390625 -34.738281 28.578125 -33.523438 28.796875 -32.328125 C 29.023438 -31.128906 29.140625 -30.082031 29.140625 -29.1875 C 29.140625 -28.851562 29.050781 -28.601562 28.875 -28.4375 C 28.707031 -28.269531 28.535156 -28.1875 28.359375 -28.1875 C 28.171875 -28.1875 28 -28.25 27.84375 -28.375 C 27.695312 -28.507812 27.566406 -28.707031 27.453125 -28.96875 C 27.148438 -29.820312 26.867188 -30.566406 26.609375 -31.203125 C 26.347656 -31.835938 26.050781 -32.328125 25.71875 -32.671875 C 25.226562 -33.191406 24.664062 -33.597656 24.03125 -33.890625 C 23.394531 -34.191406 22.628906 -34.34375 21.734375 -34.34375 L 16.53125 -34.34375 C 15.851562 -34.34375 15.234375 -34.144531 14.671875 -33.75 C 14.117188 -33.363281 13.84375 -32.816406 13.84375 -32.109375 L 13.84375 -21.125 C 13.84375 -20.707031 13.960938 -20.382812 14.203125 -20.15625 C 14.441406 -19.9375 14.734375 -19.828125 15.078125 -19.828125 L 20.234375 -19.828125 C 21.234375 -19.828125 21.945312 -20.109375 22.375 -20.671875 C 22.8125 -21.234375 23.179688 -22 23.484375 -22.96875 C 23.742188 -23.71875 24.097656 -24.09375 24.546875 -24.09375 C 24.734375 -24.09375 24.898438 -23.988281 25.046875 -23.78125 C 25.191406 -23.582031 25.265625 -23.3125 25.265625 -22.96875 C 25.234375 -22.59375 25.195312 -22.144531 25.15625 -21.625 C 25.125 -21.101562 25.097656 -20.582031 25.078125 -20.0625 C 25.054688 -19.539062 25.046875 -19.070312 25.046875 -18.65625 C 25.046875 -18.207031 25.054688 -17.703125 25.078125 -17.140625 C 25.097656 -16.585938 25.113281 -16.039062 25.125 -15.5 C 25.144531 -14.957031 25.175781 -14.5 25.21875 -14.125 C 25.25 -13.707031 25.21875 -13.382812 25.125 -13.15625 C 25.03125 -12.9375 24.875 -12.828125 24.65625 -12.828125 C 24.050781 -12.828125 23.617188 -13.351562 23.359375 -14.40625 C 23.066406 -15.445312 22.710938 -16.226562 22.296875 -16.75 C 21.890625 -17.269531 21.332031 -17.53125 20.625 -17.53125 L 15.359375 -17.53125 C 14.867188 -17.53125 14.492188 -17.4375 14.234375 -17.25 C 13.972656 -17.070312 13.84375 -16.71875 13.84375 -16.1875 L 13.84375 -5.546875 C 13.84375 -4.316406 14.101562 -3.457031 14.625 -2.96875 C 15.144531 -2.476562 15.945312 -2.234375 17.03125 -2.234375 L 21.625 -2.234375 C 22.5625 -2.234375 23.410156 -2.328125 24.171875 -2.515625 C 24.941406 -2.703125 25.609375 -3.003906 26.171875 -3.421875 C 26.804688 -3.867188 27.375 -4.472656 27.875 -5.234375 C 28.375 -6.003906 28.867188 -6.851562 29.359375 -7.78125 C 29.503906 -8.082031 29.648438 -8.28125 29.796875 -8.375 C 29.953125 -8.46875 30.144531 -8.515625 30.375 -8.515625 C 30.5625 -8.472656 30.695312 -8.359375 30.78125 -8.171875 C 30.875 -7.992188 30.921875 -7.789062 30.921875 -7.5625 C 30.921875 -7.039062 30.828125 -6.367188 30.640625 -5.546875 C 30.460938 -4.722656 30.234375 -3.875 29.953125 -3 C 29.671875 -2.125 29.414062 -1.3125 29.1875 -0.5625 C 29.082031 -0.300781 28.9375 -0.109375 28.75 0.015625 C 28.5625 0.148438 28.335938 0.21875 28.078125 0.21875 C 27.179688 0.21875 26.03125 0.207031 24.625 0.1875 C 23.226562 0.175781 21.707031 0.148438 20.0625 0.109375 C 18.414062 0.078125 16.734375 0.0507812 15.015625 0.03125 C 13.296875 0.0078125 11.648438 0 10.078125 0 C 9.296875 0 8.503906 0.015625 7.703125 0.046875 C 6.898438 0.0859375 6.085938 0.132812 5.265625 0.1875 C 4.441406 0.25 3.601562 0.28125 2.75 0.28125 Z M 2.75 0.28125 "/></g></g></g><g fill="#ffffff" fill-opacity="1"><g transform="translate(143.366009, 57.460601)"><g/></g></g><g fill="#ffffff" fill-opacity="1"><g transform="translate(155.971455, 57.460601)"><g><path d="M 10.421875 -39 C 11.285156 -39 11.71875 -38.71875 11.71875 -38.15625 C 11.71875 -37.9375 11.625 -37.769531 11.4375 -37.65625 C 11.25 -37.539062 10.96875 -37.429688 10.59375 -37.328125 C 9.65625 -37.097656 8.8125 -36.757812 8.0625 -36.3125 C 7.320312 -35.863281 6.726562 -35.273438 6.28125 -34.546875 C 5.832031 -33.816406 5.609375 -32.96875 5.609375 -32 C 5.609375 -31.40625 5.832031 -30.875 6.28125 -30.40625 C 6.726562 -29.9375 7.269531 -29.644531 7.90625 -29.53125 C 8.570312 -29.414062 9.148438 -29.097656 9.640625 -28.578125 C 10.128906 -28.054688 10.375 -27.40625 10.375 -26.625 C 10.375 -25.726562 10 -24.96875 9.25 -24.34375 C 8.5 -23.726562 7.660156 -23.421875 6.734375 -23.421875 C 5.160156 -23.421875 3.878906 -23.953125 2.890625 -25.015625 C 1.898438 -26.085938 1.40625 -27.460938 1.40625 -29.140625 C 1.40625 -30.597656 1.679688 -31.929688 2.234375 -33.140625 C 2.796875 -34.359375 3.523438 -35.394531 4.421875 -36.25 C 5.328125 -37.113281 6.300781 -37.785156 7.34375 -38.265625 C 8.382812 -38.753906 9.410156 -39 10.421875 -39 Z M 10.421875 -39 "/></g></g></g><g fill="#ffffff" fill-opacity="1"><g transform="translate(169.417271, 57.460601)"><g><path d="M 37.875 1.015625 C 37.425781 1.015625 36.675781 0.734375 35.625 0.171875 C 34.582031 -0.390625 33.519531 -1.363281 32.4375 -2.75 C 31.800781 -3.457031 31.023438 -4.320312 30.109375 -5.34375 C 29.203125 -6.375 28.195312 -7.503906 27.09375 -8.734375 C 25.988281 -9.972656 24.835938 -11.265625 23.640625 -12.609375 C 22.453125 -13.953125 21.269531 -15.296875 20.09375 -16.640625 C 18.914062 -17.984375 17.765625 -19.269531 16.640625 -20.5 C 15.515625 -21.738281 14.484375 -22.867188 13.546875 -23.890625 C 12.617188 -24.921875 11.835938 -25.8125 11.203125 -26.5625 C 11.054688 -26.75 10.898438 -26.90625 10.734375 -27.03125 C 10.566406 -27.164062 10.425781 -27.234375 10.3125 -27.234375 C 10.15625 -27.234375 10.039062 -27.101562 9.96875 -26.84375 C 9.894531 -26.582031 9.859375 -26.335938 9.859375 -26.109375 C 9.859375 -24.390625 9.867188 -22.351562 9.890625 -20 C 9.910156 -17.644531 9.921875 -15.253906 9.921875 -12.828125 C 9.921875 -10.398438 9.921875 -8.160156 9.921875 -6.109375 C 9.921875 -4.953125 10.253906 -4 10.921875 -3.25 C 11.597656 -2.5 12.664062 -1.957031 14.125 -1.625 C 14.570312 -1.550781 14.953125 -1.429688 15.265625 -1.265625 C 15.585938 -1.097656 15.75 -0.863281 15.75 -0.5625 C 15.75 -0.300781 15.597656 -0.113281 15.296875 0 C 14.992188 0.113281 14.65625 0.171875 14.28125 0.171875 C 13.28125 0.171875 12.476562 0.148438 11.875 0.109375 C 11.28125 0.078125 10.738281 0.0390625 10.25 0 C 9.769531 -0.0390625 9.15625 -0.0625 8.40625 -0.0625 C 7.625 -0.0625 6.921875 -0.0390625 6.296875 0 C 5.679688 0.0390625 5.128906 0.0859375 4.640625 0.140625 C 4.160156 0.191406 3.695312 0.21875 3.25 0.21875 C 2.875 0.21875 2.535156 0.148438 2.234375 0.015625 C 1.941406 -0.109375 1.796875 -0.28125 1.796875 -0.5 C 1.796875 -0.800781 1.9375 -1.035156 2.21875 -1.203125 C 2.5 -1.367188 2.878906 -1.53125 3.359375 -1.6875 C 4.328125 -1.976562 5.046875 -2.523438 5.515625 -3.328125 C 5.984375 -4.128906 6.273438 -5.09375 6.390625 -6.21875 C 6.535156 -7.632812 6.679688 -9.488281 6.828125 -11.78125 C 6.984375 -14.082031 7.125 -16.671875 7.25 -19.546875 C 7.382812 -22.429688 7.453125 -25.40625 7.453125 -28.46875 C 7.453125 -30.40625 6.957031 -31.800781 5.96875 -32.65625 C 4.976562 -33.519531 3.734375 -34.210938 2.234375 -34.734375 C 1.972656 -34.804688 1.632812 -34.957031 1.21875 -35.1875 C 0.8125 -35.414062 0.609375 -35.695312 0.609375 -36.03125 C 0.609375 -36.363281 0.757812 -36.585938 1.0625 -36.703125 C 1.363281 -36.816406 1.679688 -36.875 2.015625 -36.875 C 2.796875 -36.875 3.578125 -36.851562 4.359375 -36.8125 C 5.148438 -36.769531 5.945312 -36.738281 6.75 -36.71875 C 7.550781 -36.707031 8.390625 -36.679688 9.265625 -36.640625 C 10.148438 -36.609375 11.097656 -36.59375 12.109375 -36.59375 C 12.441406 -36.59375 12.691406 -36.523438 12.859375 -36.390625 C 13.023438 -36.265625 13.179688 -36.085938 13.328125 -35.859375 C 13.929688 -35.148438 14.695312 -34.265625 15.625 -33.203125 C 16.5625 -32.140625 17.582031 -30.960938 18.6875 -29.671875 C 19.789062 -28.378906 20.945312 -27.023438 22.15625 -25.609375 C 23.375 -24.191406 24.585938 -22.769531 25.796875 -21.34375 C 27.015625 -19.925781 28.179688 -18.570312 29.296875 -17.28125 C 30.421875 -16 31.441406 -14.820312 32.359375 -13.75 C 33.273438 -12.6875 34.03125 -11.820312 34.625 -11.15625 C 34.769531 -11 34.945312 -10.804688 35.15625 -10.578125 C 35.363281 -10.359375 35.539062 -10.25 35.6875 -10.25 C 35.988281 -10.25 36.160156 -10.566406 36.203125 -11.203125 C 36.203125 -12.171875 36.203125 -13.410156 36.203125 -14.921875 C 36.203125 -16.441406 36.207031 -18.125 36.21875 -19.96875 C 36.238281 -21.820312 36.238281 -23.71875 36.21875 -25.65625 C 36.207031 -27.601562 36.179688 -29.472656 36.140625 -31.265625 C 36.097656 -32.203125 35.710938 -32.941406 34.984375 -33.484375 C 34.265625 -34.023438 33.363281 -34.40625 32.28125 -34.625 C 31.832031 -34.738281 31.410156 -34.878906 31.015625 -35.046875 C 30.617188 -35.210938 30.421875 -35.460938 30.421875 -35.796875 C 30.421875 -36.066406 30.617188 -36.253906 31.015625 -36.359375 C 31.410156 -36.472656 31.773438 -36.53125 32.109375 -36.53125 C 32.847656 -36.53125 33.46875 -36.53125 33.96875 -36.53125 C 34.476562 -36.53125 34.957031 -36.519531 35.40625 -36.5 C 35.851562 -36.476562 36.320312 -36.46875 36.8125 -36.46875 C 37.632812 -36.46875 38.304688 -36.476562 38.828125 -36.5 C 39.347656 -36.519531 39.914062 -36.546875 40.53125 -36.578125 C 41.15625 -36.617188 41.96875 -36.640625 42.96875 -36.640625 C 43.414062 -36.640625 43.78125 -36.570312 44.0625 -36.4375 C 44.34375 -36.3125 44.484375 -36.140625 44.484375 -35.921875 C 44.484375 -35.359375 43.941406 -34.960938 42.859375 -34.734375 C 41.554688 -34.472656 40.632812 -34.117188 40.09375 -33.671875 C 39.550781 -33.222656 39.257812 -32.476562 39.21875 -31.4375 C 39.21875 -30.5 39.207031 -29.300781 39.1875 -27.84375 C 39.175781 -26.382812 39.148438 -24.796875 39.109375 -23.078125 C 39.066406 -21.359375 39.019531 -19.601562 38.96875 -17.8125 C 38.914062 -16.019531 38.878906 -14.265625 38.859375 -12.546875 C 38.835938 -10.828125 38.828125 -9.28125 38.828125 -7.90625 C 38.828125 -7.007812 38.863281 -6.09375 38.9375 -5.15625 C 39.007812 -4.21875 39.09375 -3.382812 39.1875 -2.65625 C 39.28125 -1.925781 39.328125 -1.414062 39.328125 -1.125 C 39.328125 -0.300781 39.195312 0.257812 38.9375 0.5625 C 38.675781 0.863281 38.320312 1.015625 37.875 1.015625 Z M 37.875 1.015625 "/></g></g></g><g fill="#ffffff" fill-opacity="1"><g transform="translate(214.460733, 57.460601)"><g><path d="M 2.96875 -23.203125 C 2.101562 -23.203125 1.671875 -23.484375 1.671875 -24.046875 C 1.671875 -24.265625 1.765625 -24.429688 1.953125 -24.546875 C 2.140625 -24.660156 2.421875 -24.769531 2.796875 -24.875 C 3.734375 -25.101562 4.570312 -25.441406 5.3125 -25.890625 C 6.0625 -26.335938 6.660156 -26.925781 7.109375 -27.65625 C 7.554688 -28.382812 7.78125 -29.234375 7.78125 -30.203125 C 7.78125 -30.796875 7.554688 -31.328125 7.109375 -31.796875 C 6.660156 -32.265625 6.117188 -32.554688 5.484375 -32.671875 C 4.816406 -32.785156 4.238281 -33.101562 3.75 -33.625 C 3.257812 -34.144531 3.015625 -34.796875 3.015625 -35.578125 C 3.015625 -36.472656 3.390625 -37.226562 4.140625 -37.84375 C 4.890625 -38.46875 5.726562 -38.78125 6.65625 -38.78125 C 8.226562 -38.78125 9.507812 -38.242188 10.5 -37.171875 C 11.488281 -36.109375 11.984375 -34.738281 11.984375 -33.0625 C 11.984375 -31.601562 11.703125 -30.265625 11.140625 -29.046875 C 10.585938 -27.835938 9.859375 -26.800781 8.953125 -25.9375 C 8.054688 -25.082031 7.085938 -24.410156 6.046875 -23.921875 C 5.003906 -23.441406 3.976562 -23.203125 2.96875 -23.203125 Z M 2.96875 -23.203125 "/></g></g></g><g fill="#ffffff" fill-opacity="1"><g transform="translate(225.441386, 57.460601)"><g/></g></g><g fill="#ffffff" fill-opacity="1"><g transform="translate(238.046832, 57.460601)"><g><path d="M 2.578125 0.28125 C 2.171875 0.28125 1.851562 0.195312 1.625 0.03125 C 1.394531 -0.132812 1.28125 -0.3125 1.28125 -0.5 C 1.28125 -0.800781 1.410156 -1.035156 1.671875 -1.203125 C 1.941406 -1.367188 2.207031 -1.488281 2.46875 -1.5625 C 3.8125 -1.90625 4.800781 -2.328125 5.4375 -2.828125 C 6.070312 -3.335938 6.390625 -4.171875 6.390625 -5.328125 L 6.390625 -31.09375 C 6.390625 -31.957031 6.285156 -32.613281 6.078125 -33.0625 C 5.867188 -33.507812 5.515625 -33.851562 5.015625 -34.09375 C 4.515625 -34.332031 3.773438 -34.546875 2.796875 -34.734375 C 1.828125 -34.921875 1.34375 -35.316406 1.34375 -35.921875 C 1.34375 -36.140625 1.472656 -36.3125 1.734375 -36.4375 C 1.992188 -36.570312 2.296875 -36.640625 2.640625 -36.640625 C 3.566406 -36.640625 4.453125 -36.617188 5.296875 -36.578125 C 6.140625 -36.546875 6.953125 -36.507812 7.734375 -36.46875 C 8.515625 -36.4375 9.296875 -36.421875 10.078125 -36.421875 C 10.941406 -36.421875 11.8125 -36.4375 12.6875 -36.46875 C 13.5625 -36.507812 14.457031 -36.546875 15.375 -36.578125 C 16.289062 -36.617188 17.179688 -36.640625 18.046875 -36.640625 C 18.421875 -36.640625 18.71875 -36.570312 18.9375 -36.4375 C 19.164062 -36.3125 19.28125 -36.117188 19.28125 -35.859375 C 19.28125 -35.554688 19.15625 -35.320312 18.90625 -35.15625 C 18.664062 -34.988281 18.320312 -34.847656 17.875 -34.734375 C 16.414062 -34.359375 15.335938 -33.957031 14.640625 -33.53125 C 13.953125 -33.101562 13.609375 -32.347656 13.609375 -31.265625 L 13.609375 -5.65625 C 13.609375 -4.570312 13.851562 -3.773438 14.34375 -3.265625 C 14.832031 -2.765625 15.75 -2.515625 17.09375 -2.515625 L 23.203125 -2.515625 C 24.054688 -2.515625 24.835938 -2.664062 25.546875 -2.96875 C 26.253906 -3.269531 26.832031 -3.644531 27.28125 -4.09375 C 27.957031 -4.6875 28.519531 -5.316406 28.96875 -5.984375 C 29.414062 -6.660156 29.84375 -7.445312 30.25 -8.34375 C 30.519531 -8.90625 30.765625 -9.332031 30.984375 -9.625 C 31.210938 -9.925781 31.4375 -10.078125 31.65625 -10.078125 C 31.914062 -10.078125 32.101562 -9.957031 32.21875 -9.71875 C 32.332031 -9.476562 32.390625 -9.226562 32.390625 -8.96875 C 32.390625 -8.925781 32.367188 -8.8125 32.328125 -8.625 C 32.296875 -8.4375 32.28125 -8.289062 32.28125 -8.1875 C 31.976562 -7.101562 31.722656 -6.164062 31.515625 -5.375 C 31.304688 -4.59375 31.132812 -3.835938 31 -3.109375 C 30.875 -2.378906 30.757812 -1.585938 30.65625 -0.734375 C 30.613281 -0.472656 30.535156 -0.238281 30.421875 -0.03125 C 30.304688 0.175781 30.082031 0.28125 29.75 0.28125 C 28.632812 0.28125 27.289062 0.257812 25.71875 0.21875 C 24.144531 0.1875 22.476562 0.160156 20.71875 0.140625 C 18.96875 0.117188 17.207031 0.0859375 15.4375 0.046875 C 13.664062 0.015625 11.992188 0 10.421875 0 C 9.597656 0 8.65625 0.015625 7.59375 0.046875 C 6.53125 0.0859375 5.53125 0.132812 4.59375 0.1875 C 3.65625 0.25 2.984375 0.28125 2.578125 0.28125 Z M 2.578125 0.28125 "/></g></g></g><g fill="#ffffff" fill-opacity="1"><g transform="translate(270.82097, 57.460601)"><g><path d="M 2.75 0.28125 C 2.332031 0.28125 2.003906 0.203125 1.765625 0.046875 C 1.523438 -0.0976562 1.40625 -0.28125 1.40625 -0.5 C 1.40625 -0.988281 1.890625 -1.34375 2.859375 -1.5625 C 4.203125 -1.90625 5.160156 -2.328125 5.734375 -2.828125 C 6.316406 -3.335938 6.609375 -4.207031 6.609375 -5.4375 L 6.609375 -30.8125 C 6.609375 -32.082031 6.351562 -32.976562 5.84375 -33.5 C 5.34375 -34.03125 4.40625 -34.441406 3.03125 -34.734375 C 2.5 -34.847656 2.117188 -35.007812 1.890625 -35.21875 C 1.671875 -35.425781 1.5625 -35.640625 1.5625 -35.859375 C 1.5625 -36.117188 1.679688 -36.3125 1.921875 -36.4375 C 2.171875 -36.570312 2.5 -36.640625 2.90625 -36.640625 C 3.988281 -36.640625 5.023438 -36.617188 6.015625 -36.578125 C 7.015625 -36.546875 7.976562 -36.507812 8.90625 -36.46875 C 9.84375 -36.4375 10.816406 -36.421875 11.828125 -36.421875 C 13.546875 -36.421875 15.363281 -36.4375 17.28125 -36.46875 C 19.207031 -36.507812 20.9375 -36.53125 22.46875 -36.53125 C 23.695312 -36.570312 24.710938 -36.628906 25.515625 -36.703125 C 26.328125 -36.773438 26.804688 -36.8125 26.953125 -36.8125 C 27.210938 -36.8125 27.484375 -36.753906 27.765625 -36.640625 C 28.046875 -36.523438 28.203125 -36.300781 28.234375 -35.96875 C 28.390625 -34.738281 28.578125 -33.523438 28.796875 -32.328125 C 29.023438 -31.128906 29.140625 -30.082031 29.140625 -29.1875 C 29.140625 -28.851562 29.050781 -28.601562 28.875 -28.4375 C 28.707031 -28.269531 28.535156 -28.1875 28.359375 -28.1875 C 28.171875 -28.1875 28 -28.25 27.84375 -28.375 C 27.695312 -28.507812 27.566406 -28.707031 27.453125 -28.96875 C 27.148438 -29.820312 26.867188 -30.566406 26.609375 -31.203125 C 26.347656 -31.835938 26.050781 -32.328125 25.71875 -32.671875 C 25.226562 -33.191406 24.664062 -33.597656 24.03125 -33.890625 C 23.394531 -34.191406 22.628906 -34.34375 21.734375 -34.34375 L 16.53125 -34.34375 C 15.851562 -34.34375 15.234375 -34.144531 14.671875 -33.75 C 14.117188 -33.363281 13.84375 -32.816406 13.84375 -32.109375 L 13.84375 -21.125 C 13.84375 -20.707031 13.960938 -20.382812 14.203125 -20.15625 C 14.441406 -19.9375 14.734375 -19.828125 15.078125 -19.828125 L 20.234375 -19.828125 C 21.234375 -19.828125 21.945312 -20.109375 22.375 -20.671875 C 22.8125 -21.234375 23.179688 -22 23.484375 -22.96875 C 23.742188 -23.71875 24.097656 -24.09375 24.546875 -24.09375 C 24.734375 -24.09375 24.898438 -23.988281 25.046875 -23.78125 C 25.191406 -23.582031 25.265625 -23.3125 25.265625 -22.96875 C 25.234375 -22.59375 25.195312 -22.144531 25.15625 -21.625 C 25.125 -21.101562 25.097656 -20.582031 25.078125 -20.0625 C 25.054688 -19.539062 25.046875 -19.070312 25.046875 -18.65625 C 25.046875 -18.207031 25.054688 -17.703125 25.078125 -17.140625 C 25.097656 -16.585938 25.113281 -16.039062 25.125 -15.5 C 25.144531 -14.957031 25.175781 -14.5 25.21875 -14.125 C 25.25 -13.707031 25.21875 -13.382812 25.125 -13.15625 C 25.03125 -12.9375 24.875 -12.828125 24.65625 -12.828125 C 24.050781 -12.828125 23.617188 -13.351562 23.359375 -14.40625 C 23.066406 -15.445312 22.710938 -16.226562 22.296875 -16.75 C 21.890625 -17.269531 21.332031 -17.53125 20.625 -17.53125 L 15.359375 -17.53125 C 14.867188 -17.53125 14.492188 -17.4375 14.234375 -17.25 C 13.972656 -17.070312 13.84375 -16.71875 13.84375 -16.1875 L 13.84375 -5.546875 C 13.84375 -4.316406 14.101562 -3.457031 14.625 -2.96875 C 15.144531 -2.476562 15.945312 -2.234375 17.03125 -2.234375 L 21.625 -2.234375 C 22.5625 -2.234375 23.410156 -2.328125 24.171875 -2.515625 C 24.941406 -2.703125 25.609375 -3.003906 26.171875 -3.421875 C 26.804688 -3.867188 27.375 -4.472656 27.875 -5.234375 C 28.375 -6.003906 28.867188 -6.851562 29.359375 -7.78125 C 29.503906 -8.082031 29.648438 -8.28125 29.796875 -8.375 C 29.953125 -8.46875 30.144531 -8.515625 30.375 -8.515625 C 30.5625 -8.472656 30.695312 -8.359375 30.78125 -8.171875 C 30.875 -7.992188 30.921875 -7.789062 30.921875 -7.5625 C 30.921875 -7.039062 30.828125 -6.367188 30.640625 -5.546875 C 30.460938 -4.722656 30.234375 -3.875 29.953125 -3 C 29.671875 -2.125 29.414062 -1.3125 29.1875 -0.5625 C 29.082031 -0.300781 28.9375 -0.109375 28.75 0.015625 C 28.5625 0.148438 28.335938 0.21875 28.078125 0.21875 C 27.179688 0.21875 26.03125 0.207031 24.625 0.1875 C 23.226562 0.175781 21.707031 0.148438 20.0625 0.109375 C 18.414062 0.078125 16.734375 0.0507812 15.015625 0.03125 C 13.296875 0.0078125 11.648438 0 10.078125 0 C 9.296875 0 8.503906 0.015625 7.703125 0.046875 C 6.898438 0.0859375 6.085938 0.132812 5.265625 0.1875 C 4.441406 0.25 3.601562 0.28125 2.75 0.28125 Z M 2.75 0.28125 "/></g></g></g><g fill="#ffffff" fill-opacity="1"><g transform="translate(302.810796, 57.460601)"><g><path d="M 37.875 1.015625 C 37.425781 1.015625 36.675781 0.734375 35.625 0.171875 C 34.582031 -0.390625 33.519531 -1.363281 32.4375 -2.75 C 31.800781 -3.457031 31.023438 -4.320312 30.109375 -5.34375 C 29.203125 -6.375 28.195312 -7.503906 27.09375 -8.734375 C 25.988281 -9.972656 24.835938 -11.265625 23.640625 -12.609375 C 22.453125 -13.953125 21.269531 -15.296875 20.09375 -16.640625 C 18.914062 -17.984375 17.765625 -19.269531 16.640625 -20.5 C 15.515625 -21.738281 14.484375 -22.867188 13.546875 -23.890625 C 12.617188 -24.921875 11.835938 -25.8125 11.203125 -26.5625 C 11.054688 -26.75 10.898438 -26.90625 10.734375 -27.03125 C 10.566406 -27.164062 10.425781 -27.234375 10.3125 -27.234375 C 10.15625 -27.234375 10.039062 -27.101562 9.96875 -26.84375 C 9.894531 -26.582031 9.859375 -26.335938 9.859375 -26.109375 C 9.859375 -24.390625 9.867188 -22.351562 9.890625 -20 C 9.910156 -17.644531 9.921875 -15.253906 9.921875 -12.828125 C 9.921875 -10.398438 9.921875 -8.160156 9.921875 -6.109375 C 9.921875 -4.953125 10.253906 -4 10.921875 -3.25 C 11.597656 -2.5 12.664062 -1.957031 14.125 -1.625 C 14.570312 -1.550781 14.953125 -1.429688 15.265625 -1.265625 C 15.585938 -1.097656 15.75 -0.863281 15.75 -0.5625 C 15.75 -0.300781 15.597656 -0.113281 15.296875 0 C 14.992188 0.113281 14.65625 0.171875 14.28125 0.171875 C 13.28125 0.171875 12.476562 0.148438 11.875 0.109375 C 11.28125 0.078125 10.738281 0.0390625 10.25 0 C 9.769531 -0.0390625 9.15625 -0.0625 8.40625 -0.0625 C 7.625 -0.0625 6.921875 -0.0390625 6.296875 0 C 5.679688 0.0390625 5.128906 0.0859375 4.640625 0.140625 C 4.160156 0.191406 3.695312 0.21875 3.25 0.21875 C 2.875 0.21875 2.535156 0.148438 2.234375 0.015625 C 1.941406 -0.109375 1.796875 -0.28125 1.796875 -0.5 C 1.796875 -0.800781 1.9375 -1.035156 2.21875 -1.203125 C 2.5 -1.367188 2.878906 -1.53125 3.359375 -1.6875 C 4.328125 -1.976562 5.046875 -2.523438 5.515625 -3.328125 C 5.984375 -4.128906 6.273438 -5.09375 6.390625 -6.21875 C 6.535156 -7.632812 6.679688 -9.488281 6.828125 -11.78125 C 6.984375 -14.082031 7.125 -16.671875 7.25 -19.546875 C 7.382812 -22.429688 7.453125 -25.40625 7.453125 -28.46875 C 7.453125 -30.40625 6.957031 -31.800781 5.96875 -32.65625 C 4.976562 -33.519531 3.734375 -34.210938 2.234375 -34.734375 C 1.972656 -34.804688 1.632812 -34.957031 1.21875 -35.1875 C 0.8125 -35.414062 0.609375 -35.695312 0.609375 -36.03125 C 0.609375 -36.363281 0.757812 -36.585938 1.0625 -36.703125 C 1.363281 -36.816406 1.679688 -36.875 2.015625 -36.875 C 2.796875 -36.875 3.578125 -36.851562 4.359375 -36.8125 C 5.148438 -36.769531 5.945312 -36.738281 6.75 -36.71875 C 7.550781 -36.707031 8.390625 -36.679688 9.265625 -36.640625 C 10.148438 -36.609375 11.097656 -36.59375 12.109375 -36.59375 C 12.441406 -36.59375 12.691406 -36.523438 12.859375 -36.390625 C 13.023438 -36.265625 13.179688 -36.085938 13.328125 -35.859375 C 13.929688 -35.148438 14.695312 -34.265625 15.625 -33.203125 C 16.5625 -32.140625 17.582031 -30.960938 18.6875 -29.671875 C 19.789062 -28.378906 20.945312 -27.023438 22.15625 -25.609375 C 23.375 -24.191406 24.585938 -22.769531 25.796875 -21.34375 C 27.015625 -19.925781 28.179688 -18.570312 29.296875 -17.28125 C 30.421875 -16 31.441406 -14.820312 32.359375 -13.75 C 33.273438 -12.6875 34.03125 -11.820312 34.625 -11.15625 C 34.769531 -11 34.945312 -10.804688 35.15625 -10.578125 C 35.363281 -10.359375 35.539062 -10.25 35.6875 -10.25 C 35.988281 -10.25 36.160156 -10.566406 36.203125 -11.203125 C 36.203125 -12.171875 36.203125 -13.410156 36.203125 -14.921875 C 36.203125 -16.441406 36.207031 -18.125 36.21875 -19.96875 C 36.238281 -21.820312 36.238281 -23.71875 36.21875 -25.65625 C 36.207031 -27.601562 36.179688 -29.472656 36.140625 -31.265625 C 36.097656 -32.203125 35.710938 -32.941406 34.984375 -33.484375 C 34.265625 -34.023438 33.363281 -34.40625 32.28125 -34.625 C 31.832031 -34.738281 31.410156 -34.878906 31.015625 -35.046875 C 30.617188 -35.210938 30.421875 -35.460938 30.421875 -35.796875 C 30.421875 -36.066406 30.617188 -36.253906 31.015625 -36.359375 C 31.410156 -36.472656 31.773438 -36.53125 32.109375 -36.53125 C 32.847656 -36.53125 33.46875 -36.53125 33.96875 -36.53125 C 34.476562 -36.53125 34.957031 -36.519531 35.40625 -36.5 C 35.851562 -36.476562 36.320312 -36.46875 36.8125 -36.46875 C 37.632812 -36.46875 38.304688 -36.476562 38.828125 -36.5 C 39.347656 -36.519531 39.914062 -36.546875 40.53125 -36.578125 C 41.15625 -36.617188 41.96875 -36.640625 42.96875 -36.640625 C 43.414062 -36.640625 43.78125 -36.570312 44.0625 -36.4375 C 44.34375 -36.3125 44.484375 -36.140625 44.484375 -35.921875 C 44.484375 -35.359375 43.941406 -34.960938 42.859375 -34.734375 C 41.554688 -34.472656 40.632812 -34.117188 40.09375 -33.671875 C 39.550781 -33.222656 39.257812 -32.476562 39.21875 -31.4375 C 39.21875 -30.5 39.207031 -29.300781 39.1875 -27.84375 C 39.175781 -26.382812 39.148438 -24.796875 39.109375 -23.078125 C 39.066406 -21.359375 39.019531 -19.601562 38.96875 -17.8125 C 38.914062 -16.019531 38.878906 -14.265625 38.859375 -12.546875 C 38.835938 -10.828125 38.828125 -9.28125 38.828125 -7.90625 C 38.828125 -7.007812 38.863281 -6.09375 38.9375 -5.15625 C 39.007812 -4.21875 39.09375 -3.382812 39.1875 -2.65625 C 39.28125 -1.925781 39.328125 -1.414062 39.328125 -1.125 C 39.328125 -0.300781 39.195312 0.257812 38.9375 0.5625 C 38.675781 0.863281 38.320312 1.015625 37.875 1.015625 Z M 37.875 1.015625 "/></g></g></g><g fill="#ffffff" fill-opacity="1"><g transform="translate(347.854241, 57.460601)"><g><path d="M 11.984375 0.84375 C 10.378906 0.84375 8.859375 0.632812 7.421875 0.21875 C 5.984375 -0.1875 4.664062 -0.800781 3.46875 -1.625 C 3.25 -1.8125 3.046875 -2.003906 2.859375 -2.203125 C 2.671875 -2.410156 2.519531 -2.644531 2.40625 -2.90625 C 2.113281 -3.84375 1.910156 -4.992188 1.796875 -6.359375 C 1.679688 -7.722656 1.644531 -9.039062 1.6875 -10.3125 C 1.6875 -10.570312 1.785156 -10.753906 1.984375 -10.859375 C 2.191406 -10.972656 2.445312 -11.03125 2.75 -11.03125 C 3.039062 -11.03125 3.269531 -10.984375 3.4375 -10.890625 C 3.613281 -10.804688 3.738281 -10.628906 3.8125 -10.359375 C 4.632812 -7.554688 5.828125 -5.367188 7.390625 -3.796875 C 8.960938 -2.234375 10.738281 -1.453125 12.71875 -1.453125 C 13.945312 -1.453125 14.988281 -1.734375 15.84375 -2.296875 C 16.707031 -2.859375 17.363281 -3.585938 17.8125 -4.484375 C 18.257812 -5.378906 18.484375 -6.347656 18.484375 -7.390625 C 18.484375 -8.703125 18.25 -9.785156 17.78125 -10.640625 C 17.320312 -11.503906 16.625 -12.28125 15.6875 -12.96875 C 14.75 -13.65625 13.570312 -14.394531 12.15625 -15.1875 C 10.625 -16.082031 9.128906 -17.023438 7.671875 -18.015625 C 6.210938 -19.003906 5.015625 -20.179688 4.078125 -21.546875 C 3.148438 -22.910156 2.6875 -24.597656 2.6875 -26.609375 C 2.6875 -28.703125 3.21875 -30.539062 4.28125 -32.125 C 5.351562 -33.71875 6.835938 -34.960938 8.734375 -35.859375 C 10.640625 -36.753906 12.847656 -37.203125 15.359375 -37.203125 C 16.734375 -37.203125 18.019531 -37.050781 19.21875 -36.75 C 20.414062 -36.457031 21.367188 -36.160156 22.078125 -35.859375 C 22.484375 -35.710938 22.789062 -35.523438 23 -35.296875 C 23.207031 -35.078125 23.367188 -34.722656 23.484375 -34.234375 C 23.703125 -33.453125 23.894531 -32.519531 24.0625 -31.4375 C 24.226562 -30.351562 24.3125 -29.210938 24.3125 -28.015625 C 24.3125 -27.566406 23.976562 -27.34375 23.3125 -27.34375 C 23.007812 -27.34375 22.707031 -27.414062 22.40625 -27.5625 C 22.113281 -27.71875 21.929688 -27.925781 21.859375 -28.1875 C 21.179688 -30.351562 20.253906 -31.992188 19.078125 -33.109375 C 17.898438 -34.234375 16.453125 -34.796875 14.734375 -34.796875 C 13.578125 -34.796875 12.585938 -34.597656 11.765625 -34.203125 C 10.941406 -33.816406 10.285156 -33.21875 9.796875 -32.40625 C 9.316406 -31.601562 9.078125 -30.566406 9.078125 -29.296875 C 9.078125 -28.328125 9.398438 -27.429688 10.046875 -26.609375 C 10.703125 -25.785156 11.617188 -24.984375 12.796875 -24.203125 C 13.972656 -23.421875 15.289062 -22.5625 16.75 -21.625 C 18.539062 -20.582031 20.039062 -19.523438 21.25 -18.453125 C 22.46875 -17.390625 23.394531 -16.210938 24.03125 -14.921875 C 24.664062 -13.640625 24.984375 -12.117188 24.984375 -10.359375 C 24.984375 -7.898438 24.441406 -5.835938 23.359375 -4.171875 C 22.273438 -2.515625 20.757812 -1.265625 18.8125 -0.421875 C 16.875 0.421875 14.597656 0.84375 11.984375 0.84375 Z M 11.984375 0.84375 "/></g></g></g></g></g></svg>